<mxfile host="app.diagrams.net" modified="2023-05-31T01:36:10.470Z" agent="Mozilla/5.0 (Windows NT 10.0; Win64; x64) AppleWebKit/537.36 (KHTML, like Gecko) Chrome/113.0.0.0 Safari/537.36" etag="fr7qefljGiZFNSZHlhfN" version="21.2.7" type="github">
  <diagram name="PÃ¡gina-1" id="pVoKZF2TP_WYzGe5Z6-h">
    <mxGraphModel dx="281" dy="531" grid="1" gridSize="10" guides="1" tooltips="1" connect="1" arrows="1" fold="1" page="1" pageScale="1" pageWidth="827" pageHeight="1169" math="0" shadow="0">
      <root>
        <mxCell id="0" />
        <mxCell id="1" parent="0" />
        <mxCell id="PCMvO9-jbP0Y3VW3WTdK-1" value="" style="rounded=0;whiteSpace=wrap;html=1;" vertex="1" parent="1">
          <mxGeometry x="90" y="60" width="620" height="590" as="geometry" />
        </mxCell>
        <mxCell id="PCMvO9-jbP0Y3VW3WTdK-2" value="Administrador" style="shape=umlActor;verticalLabelPosition=bottom;verticalAlign=top;html=1;" vertex="1" parent="1">
          <mxGeometry x="150" y="160" width="30" height="60" as="geometry" />
        </mxCell>
        <mxCell id="PCMvO9-jbP0Y3VW3WTdK-3" value="Cajero" style="shape=umlActor;verticalLabelPosition=bottom;verticalAlign=top;html=1;" vertex="1" parent="1">
          <mxGeometry x="340" y="300" width="30" height="60" as="geometry" />
        </mxCell>
        <mxCell id="PCMvO9-jbP0Y3VW3WTdK-4" value="Auditor" style="shape=umlActor;verticalLabelPosition=bottom;verticalAlign=top;html=1;" vertex="1" parent="1">
          <mxGeometry x="420" y="300" width="30" height="60" as="geometry" />
        </mxCell>
        <mxCell id="PCMvO9-jbP0Y3VW3WTdK-5" value="Cliente" style="shape=umlActor;verticalLabelPosition=bottom;verticalAlign=top;html=1;" vertex="1" parent="1">
          <mxGeometry x="510" y="300" width="30" height="60" as="geometry" />
        </mxCell>
        <mxCell id="PCMvO9-jbP0Y3VW3WTdK-6" value="" style="ellipse;whiteSpace=wrap;html=1;" vertex="1" parent="1">
          <mxGeometry x="270" y="160" width="110" height="60" as="geometry" />
        </mxCell>
      </root>
    </mxGraphModel>
  </diagram>
</mxfile>
